<svg width="45" height="57" viewBox="0 0 45 57" fill="none" xmlns="http://www.w3.org/2000/svg">
<path d="M44.9999 43.6131L23.0778 56.7049L0.776362 44.2707L0.396973 18.7448L22.319 5.65424L44.6205 18.0884L44.9999 43.6131Z" fill="url(#paint0_linear_1_360)"/>
<path d="M44.1019 42.4974L23.063 55.0621L1.65953 43.1279L1.29492 18.6303L22.3338 6.06555L43.7373 17.9997L44.1019 42.4974Z" fill="url(#paint1_linear_1_360)"/>
<path d="M41.9163 41.2783L23.0257 52.5598L3.80738 41.8447L3.48096 19.8482L22.3704 8.5679L41.5886 19.2829L41.9163 41.2783Z" fill="url(#paint2_linear_1_360)"/>
<path d="M11.9704 6.47195L13.6161 9.80555L17.2967 10.34L14.6336 12.936L15.2618 16.5996L11.9704 14.8694L8.67912 16.5996L9.30733 12.936L6.64545 10.34L10.3248 9.80555L11.9704 6.47195Z" fill="#994811"/>
<path d="M11.3145 6.11234L12.9602 9.44593L16.6407 9.98039L13.9776 12.5763L14.6058 16.24L11.3145 14.5097L8.02318 16.24L8.65139 12.5763L5.9895 9.98039L9.66884 9.44593L11.3145 6.11234Z" fill="url(#paint3_linear_1_360)"/>
<path d="M3.909 13.2278L4.98558 15.4063L7.39002 15.756L5.64951 17.4517L6.06093 19.8469L3.909 18.7165L1.75831 19.8469L2.16849 17.4517L0.427979 15.756L2.83365 15.4063L3.909 13.2278Z" fill="#994811"/>
<path d="M3.48114 12.9926L4.55649 15.1723L6.96093 15.5208L5.22165 17.2178L5.63184 19.6117L3.48114 18.4813L1.32922 19.6117L1.74063 17.2178L0.00012207 15.5208L2.40456 15.1723L3.48114 12.9926Z" fill="url(#paint4_linear_1_360)"/>
<path d="M40.3404 12.8103L39.3267 14.9887L37.059 15.3385L38.6997 17.0342L38.3117 19.4294L40.3404 18.2989L42.3692 19.4294L41.9812 17.0342L43.6231 15.3385L41.3542 14.9887L40.3404 12.8103Z" fill="#994811"/>
<path d="M40.7441 12.575L39.7304 14.7547L37.4626 15.1033L39.1034 16.8002L38.7154 19.1942L40.7441 18.0637L42.7729 19.1942L42.3849 16.8002L44.0268 15.1033L41.7579 14.7547L40.7441 12.575Z" fill="url(#paint5_linear_1_360)"/>
<path d="M22.0654 1.07806L24.1557 5.31187L28.8291 5.99164L25.4478 9.28706L26.246 13.9408L22.0654 11.7438L17.8859 13.9408L18.6841 9.28706L15.3016 5.99164L19.9763 5.31187L22.0654 1.07806Z" fill="#994811"/>
<path d="M22.0652 0.261597L24.1555 4.4954L28.8289 5.17517L25.4477 8.47059L26.2459 13.1243L22.0652 10.9274L17.8857 13.1243L18.6839 8.47059L15.3015 5.17517L19.9761 4.4954L22.0652 0.261597Z" fill="url(#paint6_linear_1_360)"/>
<path d="M33.6218 6.29218L35.2674 9.62577L38.9468 10.1602L36.2849 12.7562L36.9131 16.4198L33.6218 14.6896L30.3304 16.4198L30.9587 12.7562L28.2955 10.1602L31.9761 9.62577L33.6218 6.29218Z" fill="#994811"/>
<path d="M34.2771 5.96707L35.9228 9.30067L39.6021 9.83513L36.939 12.4311L37.5684 16.0947L34.2771 14.3645L30.9858 16.0947L31.614 12.4311L28.9509 9.83513L32.6314 9.30067L34.2771 5.96707Z" fill="url(#paint7_linear_1_360)"/>
<g filter="url(#filter0_d_1_360)">
<path d="M20.0668 19.2278V19.8986H18.7325V24.2404H17.9103V19.8986H16.5688V19.2278H20.0668ZM22.6232 24.3054C22.2482 24.3054 21.9092 24.2212 21.6063 24.0529C21.3034 23.8798 21.0654 23.6394 20.8923 23.3317C20.7192 23.0192 20.6326 22.6585 20.6326 22.2498C20.6326 21.8459 20.7216 21.4877 20.8995 21.1752C21.0774 20.8626 21.3202 20.6222 21.6279 20.4539C21.9357 20.2857 22.2794 20.2015 22.6593 20.2015C23.0391 20.2015 23.3829 20.2857 23.6907 20.4539C23.9984 20.6222 24.2412 20.8626 24.4191 21.1752C24.597 21.4877 24.686 21.8459 24.686 22.2498C24.686 22.6537 24.5946 23.0119 24.4119 23.3245C24.2292 23.637 23.9792 23.8798 23.6618 24.0529C23.3493 24.2212 23.0031 24.3054 22.6232 24.3054ZM22.6232 23.5913C22.8348 23.5913 23.0319 23.5408 23.2147 23.4399C23.4022 23.3389 23.5536 23.1874 23.669 22.9855C23.7844 22.7835 23.8421 22.5383 23.8421 22.2498C23.8421 21.9613 23.7868 21.7185 23.6762 21.5214C23.5657 21.3194 23.419 21.168 23.2363 21.067C23.0536 20.966 22.8564 20.9155 22.6449 20.9155C22.4333 20.9155 22.2362 20.966 22.0535 21.067C21.8756 21.168 21.7337 21.3194 21.6279 21.5214C21.5221 21.7185 21.4693 21.9613 21.4693 22.2498C21.4693 22.6778 21.5774 23.0095 21.7938 23.2451C22.015 23.4759 22.2915 23.5913 22.6232 23.5913ZM26.321 20.8506C26.4604 20.6679 26.6504 20.514 26.8908 20.389C27.1312 20.264 27.4028 20.2015 27.7058 20.2015C28.052 20.2015 28.3669 20.2881 28.6506 20.4612C28.9391 20.6294 29.1651 20.8675 29.3286 21.1752C29.492 21.4829 29.5738 21.8363 29.5738 22.2354C29.5738 22.6345 29.492 22.9927 29.3286 23.3101C29.1651 23.6226 28.9391 23.8678 28.6506 24.0457C28.3669 24.2188 28.052 24.3054 27.7058 24.3054C27.4028 24.3054 27.1336 24.2453 26.898 24.125C26.6624 24 26.47 23.8462 26.321 23.6635V26.1301H25.4988V20.2664H26.321V20.8506ZM28.7371 22.2354C28.7371 21.9613 28.6794 21.7257 28.564 21.5286C28.4535 21.3266 28.3044 21.1752 28.1169 21.0742C27.9342 20.9684 27.737 20.9155 27.5255 20.9155C27.3187 20.9155 27.1216 20.9684 26.934 21.0742C26.7513 21.18 26.6023 21.3339 26.4869 21.5358C26.3763 21.7378 26.321 21.9758 26.321 22.2498C26.321 22.5239 26.3763 22.7643 26.4869 22.9711C26.6023 23.173 26.7513 23.3269 26.934 23.4327C27.1216 23.5384 27.3187 23.5913 27.5255 23.5913C27.737 23.5913 27.9342 23.5384 28.1169 23.4327C28.3044 23.3221 28.4535 23.1634 28.564 22.9566C28.6794 22.7499 28.7371 22.5095 28.7371 22.2354Z" fill="url(#paint8_linear_1_360)"/>
<path d="M26.8652 29.8629H20.8248V33.4511C21.0772 33.1145 21.4499 32.832 21.9427 32.6036C22.4476 32.3752 22.9825 32.261 23.5475 32.261C24.5572 32.261 25.3746 32.4774 25.9997 32.9101C26.6368 33.3429 27.0876 33.8898 27.352 34.551C27.6285 35.2121 27.7667 35.9093 27.7667 36.6426C27.7667 37.5321 27.5924 38.3254 27.2438 39.0226C26.9073 39.7078 26.3964 40.2487 25.7112 40.6454C25.038 41.0421 24.2086 41.2404 23.2229 41.2404C21.9127 41.2404 20.8609 40.9159 20.0675 40.2668C19.2742 39.6177 18.7993 38.7582 18.6431 37.6883H20.6445C20.7767 38.2533 21.0712 38.7041 21.528 39.0407C21.9848 39.3652 22.5558 39.5275 23.241 39.5275C24.0944 39.5275 24.7315 39.2691 25.1522 38.7522C25.585 38.2353 25.8014 37.5501 25.8014 36.6966C25.8014 35.8312 25.585 35.17 25.1522 34.7132C24.7195 34.2444 24.0824 34.01 23.241 34.01C22.652 34.01 22.1531 34.1603 21.7444 34.4608C21.3477 34.7493 21.0592 35.146 20.8789 35.6509H18.9316V28.0598H26.8652V29.8629Z" fill="url(#paint9_linear_1_360)"/>
</g>
<defs>
<filter id="filter0_d_1_360" x="13.7344" y="16.8331" width="18.6647" height="31.6818" filterUnits="userSpaceOnUse" color-interpolation-filters="sRGB">
<feFlood flood-opacity="0" result="BackgroundImageFix"/>
<feColorMatrix in="SourceAlpha" type="matrix" values="0 0 0 0 0 0 0 0 0 0 0 0 0 0 0 0 0 0 127 0" result="hardAlpha"/>
<feOffset/>
<feGaussianBlur stdDeviation="1.19737"/>
<feComposite in2="hardAlpha" operator="out"/>
<feColorMatrix type="matrix" values="0 0 0 0 0 0 0 0 0 0 0 0 0 0 0 0 0 0 0.25 0"/>
<feBlend mode="normal" in2="BackgroundImageFix" result="effect1_dropShadow_1_360"/>
<feBlend mode="normal" in="SourceGraphic" in2="effect1_dropShadow_1_360" result="shape"/>
</filter>
<linearGradient id="paint0_linear_1_360" x1="7.19272" y1="49.6535" x2="38.1949" y2="12.6979" gradientUnits="userSpaceOnUse">
<stop stop-color="#F2E768"/>
<stop offset="0.22" stop-color="#D08320"/>
<stop offset="0.29" stop-color="#F9C63B"/>
<stop offset="0.33" stop-color="#E8AA2D"/>
<stop offset="0.38" stop-color="#D18219"/>
<stop offset="0.43" stop-color="#E6A531"/>
<stop offset="0.47" stop-color="#F3BA41"/>
<stop offset="0.5" stop-color="#F8C347"/>
<stop offset="0.65" stop-color="#FFF4C2"/>
<stop offset="0.67" stop-color="#FEEEB2"/>
<stop offset="0.71" stop-color="#FCE08A"/>
<stop offset="0.77" stop-color="#F9C94A"/>
<stop offset="0.79" stop-color="#F8BE2A"/>
<stop offset="0.8" stop-color="#F7BF2B"/>
<stop offset="0.82" stop-color="#F6D147"/>
<stop offset="0.85" stop-color="#F5DE5B"/>
<stop offset="0.87" stop-color="#F5E667"/>
<stop offset="0.9" stop-color="#F5E96C"/>
<stop offset="1" stop-color="#F8F3C2"/>
</linearGradient>
<linearGradient id="paint1_linear_1_360" x1="22.6984" y1="55.0621" x2="22.6984" y2="6.06555" gradientUnits="userSpaceOnUse">
<stop stop-color="#F2E768"/>
<stop offset="0.22" stop-color="#D08320"/>
<stop offset="0.29" stop-color="#F9C63B"/>
<stop offset="0.33" stop-color="#E8AA2D"/>
<stop offset="0.38" stop-color="#D18219"/>
<stop offset="0.43" stop-color="#E6A531"/>
<stop offset="0.47" stop-color="#F3BA41"/>
<stop offset="0.5" stop-color="#F8C347"/>
<stop offset="0.65" stop-color="#FFF4C2"/>
<stop offset="0.67" stop-color="#FEEEB2"/>
<stop offset="0.71" stop-color="#FCE08A"/>
<stop offset="0.77" stop-color="#F9C94A"/>
<stop offset="0.79" stop-color="#F8BE2A"/>
<stop offset="0.8" stop-color="#F7BF2B"/>
<stop offset="0.82" stop-color="#F6D147"/>
<stop offset="0.85" stop-color="#F5DE5B"/>
<stop offset="0.87" stop-color="#F5E667"/>
<stop offset="0.9" stop-color="#F5E96C"/>
<stop offset="1" stop-color="#F8F3C2"/>
</linearGradient>
<linearGradient id="paint2_linear_1_360" x1="22.698" y1="52.5598" x2="22.698" y2="-9.42021" gradientUnits="userSpaceOnUse">
<stop stop-color="#1A171B"/>
<stop offset="0.24" stop-color="#662D11"/>
<stop offset="0.44" stop-color="#A43F0A"/>
<stop offset="0.54" stop-color="#BC4708"/>
<stop offset="0.61" stop-color="#CC6122"/>
<stop offset="0.72" stop-color="#E28445"/>
<stop offset="0.83" stop-color="#F29E5E"/>
<stop offset="0.92" stop-color="#FBAD6D"/>
<stop offset="1" stop-color="#FFB373"/>
</linearGradient>
<linearGradient id="paint3_linear_1_360" x1="7.81624" y1="16.0663" x2="14.4573" y2="8.15" gradientUnits="userSpaceOnUse">
<stop stop-color="#F2E768"/>
<stop offset="0.22" stop-color="#D08320"/>
<stop offset="0.29" stop-color="#F9C63B"/>
<stop offset="0.33" stop-color="#E8AA2D"/>
<stop offset="0.38" stop-color="#D18219"/>
<stop offset="0.43" stop-color="#E6A531"/>
<stop offset="0.47" stop-color="#F3BA41"/>
<stop offset="0.5" stop-color="#F8C347"/>
<stop offset="0.65" stop-color="#FFF4C2"/>
<stop offset="0.67" stop-color="#FEEEB2"/>
<stop offset="0.71" stop-color="#FCE08A"/>
<stop offset="0.77" stop-color="#F9C94A"/>
<stop offset="0.79" stop-color="#F8BE2A"/>
<stop offset="0.8" stop-color="#F7BF2B"/>
<stop offset="0.82" stop-color="#F6D147"/>
<stop offset="0.85" stop-color="#F5DE5B"/>
<stop offset="0.87" stop-color="#F5E667"/>
<stop offset="0.9" stop-color="#F5E96C"/>
<stop offset="1" stop-color="#F8F3C2"/>
</linearGradient>
<linearGradient id="paint4_linear_1_360" x1="1.19372" y1="19.4985" x2="5.53447" y2="14.324" gradientUnits="userSpaceOnUse">
<stop stop-color="#F2E768"/>
<stop offset="0.22" stop-color="#D08320"/>
<stop offset="0.29" stop-color="#F9C63B"/>
<stop offset="0.33" stop-color="#E8AA2D"/>
<stop offset="0.38" stop-color="#D18219"/>
<stop offset="0.43" stop-color="#E6A531"/>
<stop offset="0.47" stop-color="#F3BA41"/>
<stop offset="0.5" stop-color="#F8C347"/>
<stop offset="0.65" stop-color="#FFF4C2"/>
<stop offset="0.67" stop-color="#FEEEB2"/>
<stop offset="0.71" stop-color="#FCE08A"/>
<stop offset="0.77" stop-color="#F9C94A"/>
<stop offset="0.79" stop-color="#F8BE2A"/>
<stop offset="0.8" stop-color="#F7BF2B"/>
<stop offset="0.82" stop-color="#F6D147"/>
<stop offset="0.85" stop-color="#F5DE5B"/>
<stop offset="0.87" stop-color="#F5E667"/>
<stop offset="0.9" stop-color="#F5E96C"/>
<stop offset="1" stop-color="#F8F3C2"/>
</linearGradient>
<linearGradient id="paint5_linear_1_360" x1="43.1246" y1="19.0809" x2="38.7451" y2="14.1734" gradientUnits="userSpaceOnUse">
<stop stop-color="#F2E768"/>
<stop offset="0.22" stop-color="#D08320"/>
<stop offset="0.29" stop-color="#F9C63B"/>
<stop offset="0.33" stop-color="#E8AA2D"/>
<stop offset="0.38" stop-color="#D18219"/>
<stop offset="0.43" stop-color="#E6A531"/>
<stop offset="0.47" stop-color="#F3BA41"/>
<stop offset="0.5" stop-color="#F8C347"/>
<stop offset="0.65" stop-color="#FFF4C2"/>
<stop offset="0.67" stop-color="#FEEEB2"/>
<stop offset="0.71" stop-color="#FCE08A"/>
<stop offset="0.77" stop-color="#F9C94A"/>
<stop offset="0.79" stop-color="#F8BE2A"/>
<stop offset="0.8" stop-color="#F7BF2B"/>
<stop offset="0.82" stop-color="#F6D147"/>
<stop offset="0.85" stop-color="#F5DE5B"/>
<stop offset="0.87" stop-color="#F5E667"/>
<stop offset="0.9" stop-color="#F5E96C"/>
<stop offset="1" stop-color="#F8F3C2"/>
</linearGradient>
<linearGradient id="paint6_linear_1_360" x1="17.6234" y1="12.9039" x2="26.0573" y2="2.84928" gradientUnits="userSpaceOnUse">
<stop stop-color="#F2E768"/>
<stop offset="0.22" stop-color="#D08320"/>
<stop offset="0.29" stop-color="#F9C63B"/>
<stop offset="0.33" stop-color="#E8AA2D"/>
<stop offset="0.38" stop-color="#D18219"/>
<stop offset="0.43" stop-color="#E6A531"/>
<stop offset="0.47" stop-color="#F3BA41"/>
<stop offset="0.5" stop-color="#F8C347"/>
<stop offset="0.65" stop-color="#FFF4C2"/>
<stop offset="0.67" stop-color="#FEEEB2"/>
<stop offset="0.71" stop-color="#FCE08A"/>
<stop offset="0.77" stop-color="#F9C94A"/>
<stop offset="0.79" stop-color="#F8BE2A"/>
<stop offset="0.8" stop-color="#F7BF2B"/>
<stop offset="0.82" stop-color="#F6D147"/>
<stop offset="0.85" stop-color="#F5DE5B"/>
<stop offset="0.87" stop-color="#F5E667"/>
<stop offset="0.9" stop-color="#F5E96C"/>
<stop offset="1" stop-color="#F8F3C2"/>
</linearGradient>
<linearGradient id="paint7_linear_1_360" x1="30.7788" y1="15.9211" x2="37.4199" y2="8.00473" gradientUnits="userSpaceOnUse">
<stop stop-color="#F2E768"/>
<stop offset="0.22" stop-color="#D08320"/>
<stop offset="0.29" stop-color="#F9C63B"/>
<stop offset="0.33" stop-color="#E8AA2D"/>
<stop offset="0.38" stop-color="#D18219"/>
<stop offset="0.43" stop-color="#E6A531"/>
<stop offset="0.47" stop-color="#F3BA41"/>
<stop offset="0.5" stop-color="#F8C347"/>
<stop offset="0.65" stop-color="#FFF4C2"/>
<stop offset="0.67" stop-color="#FEEEB2"/>
<stop offset="0.71" stop-color="#FCE08A"/>
<stop offset="0.77" stop-color="#F9C94A"/>
<stop offset="0.79" stop-color="#F8BE2A"/>
<stop offset="0.8" stop-color="#F7BF2B"/>
<stop offset="0.82" stop-color="#F6D147"/>
<stop offset="0.85" stop-color="#F5DE5B"/>
<stop offset="0.87" stop-color="#F5E667"/>
<stop offset="0.9" stop-color="#F5E96C"/>
<stop offset="1" stop-color="#F8F3C2"/>
</linearGradient>
<linearGradient id="paint8_linear_1_360" x1="23.0961" y1="24.2407" x2="23.0961" y2="19.2404" gradientUnits="userSpaceOnUse">
<stop stop-color="#D66450"/>
<stop offset="0.502921" stop-color="#FFAE00"/>
<stop offset="1" stop-color="#ECD000"/>
</linearGradient>
<linearGradient id="paint9_linear_1_360" x1="23.0919" y1="46.2417" x2="23.0919" y2="24.2404" gradientUnits="userSpaceOnUse">
<stop stop-color="#D66450"/>
<stop offset="0.502921" stop-color="#FFAE00"/>
<stop offset="1" stop-color="#ECD000"/>
</linearGradient>
</defs>
</svg>
