<svg width="26" height="26" viewBox="0 0 26 26" fill="none" xmlns="http://www.w3.org/2000/svg">
<path d="M23.1686 4.91C23.126 4.85684 23.073 4.81295 23.0129 4.78101C22.9527 4.74907 22.8867 4.72976 22.8188 4.72425C22.7509 4.71875 22.6826 4.72718 22.6181 4.74902C22.5536 4.77086 22.4942 4.80564 22.4436 4.85125C22.0203 5.23703 21.6275 5.65494 21.2686 6.10125C21.1101 6.30532 20.8804 6.44202 20.6255 6.48397C20.3705 6.52592 20.1091 6.47003 19.8936 6.3275C19.7803 6.24911 19.6844 6.14817 19.612 6.031C19.5396 5.91382 19.4921 5.78294 19.4726 5.64656C19.4531 5.51019 19.4621 5.37126 19.4988 5.23849C19.5355 5.10572 19.5993 4.98196 19.6861 4.875C20.0821 4.38002 20.5136 3.91462 20.9774 3.4825C21.0308 3.4336 21.073 3.37366 21.101 3.30684C21.129 3.24003 21.1422 3.16792 21.1396 3.09552C21.1369 3.02311 21.1186 2.95214 21.0859 2.88752C21.0531 2.8229 21.0067 2.76616 20.9499 2.72125C18.6751 0.957376 15.8783 9.15527e-05 12.9999 9.15527e-05C10.1214 9.15527e-05 7.3246 0.957376 5.04985 2.72125C4.99301 2.76616 4.9466 2.8229 4.91385 2.88752C4.88109 2.95214 4.86277 3.02311 4.86016 3.09552C4.85754 3.16792 4.87069 3.24003 4.8987 3.30684C4.9267 3.37366 4.9689 3.4336 5.02235 3.4825C5.47809 3.90707 5.90293 4.36364 6.2936 4.84875C6.45133 5.04054 6.53387 5.28318 6.52582 5.53136C6.51777 5.77955 6.41968 6.01633 6.24985 6.1975C6.15096 6.29954 6.03146 6.37934 5.89931 6.43157C5.76716 6.4838 5.62539 6.50727 5.48346 6.50041C5.34153 6.49355 5.20269 6.45652 5.07619 6.39178C4.94969 6.32705 4.83844 6.2361 4.74985 6.125C4.3846 5.66898 3.98376 5.24264 3.5511 4.85C3.50046 4.80467 3.44111 4.77013 3.37667 4.74851C3.31223 4.72689 3.24406 4.71864 3.17632 4.72426C3.10858 4.72987 3.0427 4.74924 2.9827 4.78117C2.9227 4.81311 2.86984 4.85694 2.82735 4.91C0.994353 7.20804 -0.00390625 10.0605 -0.00390625 13C-0.00390625 15.9395 0.994353 18.792 2.82735 21.09C2.86994 21.1432 2.92294 21.187 2.98309 21.219C3.04325 21.2509 3.1093 21.2702 3.17718 21.2757C3.24507 21.2812 3.31337 21.2728 3.37788 21.251C3.44239 21.2291 3.50177 21.1944 3.55235 21.1487C3.97563 20.763 4.36847 20.3451 4.72735 19.8987C4.88583 19.6947 5.11554 19.558 5.37049 19.516C5.62545 19.4741 5.88684 19.53 6.10235 19.6725C6.21593 19.7506 6.31213 19.8513 6.38492 19.9683C6.45772 20.0854 6.50554 20.2162 6.52537 20.3526C6.54521 20.489 6.53664 20.628 6.5002 20.7609C6.46375 20.8938 6.40023 21.0178 6.3136 21.125C5.91765 21.62 5.48609 22.0854 5.02235 22.5175C4.9689 22.5664 4.9267 22.6263 4.8987 22.6932C4.87069 22.76 4.85754 22.8321 4.86016 22.9045C4.86277 22.9769 4.88109 23.0479 4.91385 23.1125C4.9466 23.1771 4.99301 23.2338 5.04985 23.2787C7.3246 25.0426 10.1214 25.9999 12.9999 25.9999C15.8783 25.9999 18.6751 25.0426 20.9499 23.2787C21.0067 23.2338 21.0531 23.1771 21.0859 23.1125C21.1186 23.0479 21.1369 22.9769 21.1396 22.9045C21.1422 22.8321 21.129 22.76 21.101 22.6932C21.073 22.6263 21.0308 22.5664 20.9774 22.5175C20.5136 22.0854 20.0821 21.62 19.6861 21.125C19.6002 21.0178 19.5372 20.8941 19.5012 20.7615C19.4652 20.6289 19.457 20.4903 19.4769 20.3544C19.4968 20.2184 19.5446 20.088 19.6171 19.9714C19.6897 19.8547 19.7855 19.7542 19.8986 19.6762C20.1141 19.5337 20.3755 19.4778 20.6305 19.5198C20.8854 19.5617 21.1151 19.6984 21.2736 19.9025C21.6325 20.3488 22.0253 20.7667 22.4486 21.1525C22.4992 21.1981 22.5586 21.2329 22.6231 21.2547C22.6876 21.2766 22.7559 21.285 22.8238 21.2795C22.8917 21.274 22.9577 21.2547 23.0179 21.2227C23.078 21.1908 23.131 21.1469 23.1736 21.0937C25.0066 18.7957 26.0049 15.9433 26.0049 13.0037C26.0049 10.0642 25.0066 7.21179 23.1736 4.91375L23.1686 4.91ZM7.2136 8.0375C7.46338 7.97302 7.72829 8.00534 7.95524 8.12797C8.18219 8.2506 8.3544 8.45449 8.43736 8.69875C8.67556 9.38138 8.85701 10.0825 8.97985 10.795C9.01036 10.9407 9.00798 11.0913 8.97287 11.2359C8.93776 11.3805 8.87081 11.5155 8.77691 11.631C8.68301 11.7464 8.56452 11.8395 8.43009 11.9033C8.29566 11.9671 8.14868 12.0002 7.99986 12C7.74813 12.0008 7.50536 11.9067 7.31999 11.7364C7.13462 11.5661 7.02031 11.3321 6.99985 11.0812C6.95235 10.5262 6.8611 9.9675 6.59985 9.47625C6.52848 9.34397 6.48784 9.19731 6.48096 9.04717C6.47408 8.89702 6.50113 8.74726 6.56011 8.60901C6.61908 8.47076 6.70846 8.34758 6.8216 8.24864C6.93474 8.14969 7.06873 8.07752 7.2136 8.0375ZM8.97985 15.1987C8.85636 15.9249 8.6711 16.6391 8.42611 17.3337C8.37861 17.4679 8.30303 17.5904 8.20441 17.693C8.1058 17.7956 7.98642 17.876 7.85425 17.9287C7.72208 17.9815 7.58017 18.0055 7.438 17.999C7.29584 17.9925 7.15669 17.9558 7.02985 17.8912C6.81126 17.7746 6.6424 17.5826 6.55459 17.3509C6.46678 17.1192 6.46599 16.8635 6.55235 16.6312C6.75648 16.0466 6.91078 15.4457 7.0136 14.835C7.03693 14.6951 7.08976 14.5617 7.16857 14.4438C7.24739 14.3259 7.35039 14.226 7.47074 14.151C7.59109 14.0759 7.72604 14.0273 7.86662 14.0084C8.00719 13.9895 8.15019 14.0007 8.2861 14.0412C8.52273 14.1168 8.7237 14.276 8.8514 14.4891C8.9791 14.7021 9.02477 14.9544 8.97985 15.1987ZM18.9699 17.8912C18.843 17.9558 18.7039 17.9925 18.5617 17.999C18.4195 18.0055 18.2776 17.9815 18.1455 17.9287C18.0133 17.876 17.8939 17.7956 17.7953 17.693C17.6967 17.5904 17.6211 17.4679 17.5736 17.3337C17.3286 16.6391 17.1434 15.9249 17.0199 15.1987C16.9752 14.9545 17.021 14.7023 17.1487 14.4893C17.2763 14.2763 17.4771 14.117 17.7136 14.0412C17.8495 14.0007 17.9925 13.9895 18.1331 14.0084C18.2737 14.0273 18.4086 14.0759 18.529 14.151C18.6493 14.226 18.7523 14.3259 18.8311 14.4438C18.91 14.5617 18.9628 14.6951 18.9861 14.835C19.0889 15.4457 19.2432 16.0466 19.4474 16.6312C19.5337 16.8635 19.5329 17.1192 19.4451 17.3509C19.3573 17.5826 19.1884 17.7746 18.9699 17.8912ZM19.3961 9.47625C19.1349 9.9675 19.0436 10.5262 18.9961 11.0812C18.9834 11.2282 18.9383 11.3705 18.864 11.498C18.7898 11.6254 18.6883 11.7349 18.5668 11.8185C18.4453 11.9022 18.3068 11.9579 18.1613 11.9817C18.0157 12.0055 17.8667 11.9968 17.7249 11.9562C17.486 11.8834 17.2822 11.7254 17.152 11.5123C17.0219 11.2992 16.9744 11.0458 17.0186 10.8C17.1408 10.086 17.3227 9.38356 17.5624 8.7C17.6448 8.45533 17.8169 8.25097 18.0439 8.12806C18.271 8.00514 18.5362 7.97278 18.7861 8.0375C18.9307 8.07796 19.0642 8.15044 19.1769 8.24958C19.2897 8.34871 19.3786 8.47194 19.4372 8.61013C19.4958 8.74833 19.5225 8.89794 19.5154 9.04788C19.5083 9.19781 19.4675 9.34422 19.3961 9.47625Z" fill="url(#paint0_linear_282_511)"/>
<defs>
<linearGradient id="paint0_linear_282_511" x1="13.0005" y1="9.15527e-05" x2="13.0005" y2="25.9999" gradientUnits="userSpaceOnUse">
<stop stop-color="#D9D9D9"/>
<stop offset="1" stop-color="#737373"/>
</linearGradient>
</defs>
</svg>
