<svg width="25" height="27" viewBox="0 0 25 27" fill="none" xmlns="http://www.w3.org/2000/svg">
<g filter="url(#filter0_i_282_278)">
<path d="M18 0H12C10.1435 0 8.36301 0.737498 7.05025 2.05025C5.7375 3.36301 5 5.14348 5 7V10.9663C5.00411 11.2247 4.91003 11.4752 4.73674 11.667C4.56344 11.8589 4.32383 11.9779 4.06625 12C3.92946 12.0091 3.79227 11.9899 3.66319 11.9438C3.53411 11.8976 3.41591 11.8254 3.31591 11.7316C3.21592 11.6378 3.13628 11.5245 3.08193 11.3986C3.02759 11.2728 2.9997 11.1371 3 11V7.8375C2.99994 7.75416 2.97905 7.67216 2.93923 7.59895C2.89941 7.52574 2.84193 7.46364 2.772 7.41831C2.70207 7.37297 2.62192 7.34583 2.53883 7.33936C2.45574 7.33289 2.37236 7.34729 2.29625 7.38125C1.60965 7.70449 1.02917 8.21637 0.622571 8.85714C0.215976 9.49791 4.93952e-05 10.2411 0 11V14.6488C0.00102636 15.1028 0.155169 15.5432 0.4375 15.8988C0.4625 15.9288 0.48875 15.9575 0.51625 15.985L5 20.4175V25C5 25.5304 5.21071 26.0391 5.58579 26.4142C5.96086 26.7893 6.46957 27 7 27H21C21.5304 27 22.0391 26.7893 22.4142 26.4142C22.7893 26.0391 23 25.5304 23 25V20.14L24.9225 13.41C24.9738 13.2312 24.9999 13.046 25 12.86V7C25 5.14348 24.2625 3.36301 22.9497 2.05025C21.637 0.737498 19.8565 0 18 0ZM18.4475 21.105C18.565 21.1638 18.6698 21.2451 18.7559 21.3444C18.842 21.4437 18.9077 21.5589 18.9493 21.6836C18.9908 21.8082 19.0074 21.9399 18.9981 22.0709C18.9888 22.202 18.9538 22.33 18.895 22.4475C18.8362 22.565 18.7549 22.6698 18.6556 22.7559C18.5563 22.842 18.4411 22.9077 18.3164 22.9493C18.1918 22.9908 18.0601 23.0074 17.9291 22.9981C17.798 22.9888 17.67 22.9538 17.5525 22.895L14 21.1175L10.4475 22.895C10.33 22.9538 10.202 22.9888 10.0709 22.9981C9.93986 23.0074 9.80823 22.9908 9.68357 22.9493C9.55891 22.9077 9.44365 22.842 9.34438 22.7559C9.24511 22.6698 9.16377 22.565 9.105 22.4475C9.04623 22.33 9.01119 22.202 9.00188 22.0709C8.99256 21.9399 9.00915 21.8082 9.05071 21.6836C9.09226 21.5589 9.15796 21.4437 9.24406 21.3444C9.33016 21.2451 9.43497 21.1638 9.5525 21.105L11.7638 20L9.5525 18.895C9.43497 18.8362 9.33016 18.7549 9.24406 18.6556C9.15796 18.5563 9.09226 18.4411 9.05071 18.3164C9.00915 18.1918 8.99256 18.0601 9.00188 17.9291C9.01119 17.798 9.04623 17.67 9.105 17.5525C9.16377 17.435 9.24511 17.3302 9.34438 17.2441C9.44365 17.158 9.55891 17.0923 9.68357 17.0507C9.93534 16.9668 10.2101 16.9863 10.4475 17.105L14 18.8825L17.5525 17.105C17.67 17.0462 17.798 17.0112 17.9291 17.0019C18.0601 16.9926 18.1918 17.0092 18.3164 17.0507C18.4411 17.0923 18.5563 17.158 18.6556 17.2441C18.7549 17.3302 18.8362 17.435 18.895 17.5525C18.9538 17.67 18.9888 17.798 18.9981 17.9291C19.0074 18.0601 18.9908 18.1918 18.9493 18.3164C18.9077 18.4411 18.842 18.5563 18.7559 18.6556C18.6698 18.7549 18.565 18.8362 18.4475 18.895L16.2362 20L18.4475 21.105Z" fill="url(#paint0_linear_282_278)"/>
</g>
<defs>
<filter id="filter0_i_282_278" x="0" y="0" width="25" height="29.3262" filterUnits="userSpaceOnUse" color-interpolation-filters="sRGB">
<feFlood flood-opacity="0" result="BackgroundImageFix"/>
<feBlend mode="normal" in="SourceGraphic" in2="BackgroundImageFix" result="shape"/>
<feColorMatrix in="SourceAlpha" type="matrix" values="0 0 0 0 0 0 0 0 0 0 0 0 0 0 0 0 0 0 127 0" result="hardAlpha"/>
<feOffset dy="2.32616"/>
<feGaussianBlur stdDeviation="1.16308"/>
<feComposite in2="hardAlpha" operator="arithmetic" k2="-1" k3="1"/>
<feColorMatrix type="matrix" values="0 0 0 0 0 0 0 0 0 0 0 0 0 0 0 0 0 0 0.25 0"/>
<feBlend mode="normal" in2="shape" result="effect1_innerShadow_282_278"/>
</filter>
<linearGradient id="paint0_linear_282_278" x1="12.5" y1="0" x2="12.5" y2="27" gradientUnits="userSpaceOnUse">
<stop stop-color="#D9D9D9"/>
<stop offset="1" stop-color="#737373"/>
</linearGradient>
</defs>
</svg>
