<svg width="22" height="31" viewBox="0 0 22 31" fill="none" xmlns="http://www.w3.org/2000/svg">
<g filter="url(#filter0_i_282_652)">
<path d="M16.9338 23.6425C17.0285 23.8901 17.0211 24.1653 16.913 24.4074C16.8049 24.6496 16.6051 24.8389 16.3575 24.9338C14.9613 25.4817 13.494 25.8273 12 25.96V30C12 30.2652 11.8946 30.5196 11.7071 30.7071C11.5196 30.8946 11.2652 31 11 31C10.7348 31 10.4804 30.8946 10.2929 30.7071C10.1054 30.5196 10 30.2652 10 30V25.96C8.50603 25.8273 7.03869 25.4817 5.6425 24.9338C5.51768 24.8884 5.40313 24.8187 5.30554 24.7287C5.20795 24.6386 5.12928 24.53 5.0741 24.4092C5.01893 24.2885 4.98837 24.1579 4.9842 24.0252C4.98003 23.8924 5.00233 23.7602 5.04981 23.6362C5.09729 23.5122 5.16899 23.3989 5.26074 23.3029C5.35248 23.2069 5.46243 23.1301 5.58416 23.077C5.70589 23.024 5.83697 22.9957 5.96974 22.9939C6.10252 22.992 6.23434 23.0166 6.3575 23.0662C8 23.695 9.51875 24 11 24C12.4813 24 14 23.695 15.6425 23.0662C15.8902 22.9715 16.1653 22.9789 16.4074 23.087C16.6496 23.1951 16.8389 23.3949 16.9338 23.6425ZM22 11C22 13.1756 21.3549 15.3023 20.1462 17.1113C18.9375 18.9202 17.2195 20.3301 15.2095 21.1627C13.1995 21.9952 10.9878 22.2131 8.85401 21.7886C6.72022 21.3642 4.76021 20.3166 3.22183 18.7782C1.68345 17.2398 0.635804 15.2798 0.211367 13.146C-0.213071 11.0122 0.00476617 8.80047 0.83733 6.79048C1.66989 4.78049 3.07979 3.06253 4.88873 1.85383C6.69767 0.645139 8.82441 0 11 0C13.9164 0.00330842 16.7123 1.1633 18.7745 3.22548C20.8367 5.28766 21.9967 8.08363 22 11ZM13 15.5C13 15.2033 12.912 14.9133 12.7472 14.6666C12.5824 14.42 12.3481 14.2277 12.074 14.1142C11.7999 14.0006 11.4983 13.9709 11.2074 14.0288C10.9164 14.0867 10.6491 14.2296 10.4393 14.4393C10.2296 14.6491 10.0867 14.9164 10.0288 15.2074C9.97095 15.4983 10.0007 15.7999 10.1142 16.074C10.2277 16.3481 10.42 16.5824 10.6666 16.7472C10.9133 16.912 11.2033 17 11.5 17C11.8978 17 12.2794 16.842 12.5607 16.5607C12.842 16.2794 13 15.8978 13 15.5ZM17 11.5C17 11.2033 16.912 10.9133 16.7472 10.6666C16.5824 10.42 16.3481 10.2277 16.074 10.1142C15.7999 10.0006 15.4983 9.97094 15.2074 10.0288C14.9164 10.0867 14.6491 10.2296 14.4393 10.4393C14.2296 10.6491 14.0867 10.9164 14.0288 11.2074C13.9709 11.4983 14.0007 11.7999 14.1142 12.074C14.2277 12.3481 14.42 12.5824 14.6666 12.7472C14.9133 12.912 15.2033 13 15.5 13C15.8978 13 16.2794 12.842 16.5607 12.5607C16.842 12.2794 17 11.8978 17 11.5Z" fill="#343330"/>
<path d="M16.9338 23.6425C17.0285 23.8901 17.0211 24.1653 16.913 24.4074C16.8049 24.6496 16.6051 24.8389 16.3575 24.9338C14.9613 25.4817 13.494 25.8273 12 25.96V30C12 30.2652 11.8946 30.5196 11.7071 30.7071C11.5196 30.8946 11.2652 31 11 31C10.7348 31 10.4804 30.8946 10.2929 30.7071C10.1054 30.5196 10 30.2652 10 30V25.96C8.50603 25.8273 7.03869 25.4817 5.6425 24.9338C5.51768 24.8884 5.40313 24.8187 5.30554 24.7287C5.20795 24.6386 5.12928 24.53 5.0741 24.4092C5.01893 24.2885 4.98837 24.1579 4.9842 24.0252C4.98003 23.8924 5.00233 23.7602 5.04981 23.6362C5.09729 23.5122 5.16899 23.3989 5.26074 23.3029C5.35248 23.2069 5.46243 23.1301 5.58416 23.077C5.70589 23.024 5.83697 22.9957 5.96974 22.9939C6.10252 22.992 6.23434 23.0166 6.3575 23.0662C8 23.695 9.51875 24 11 24C12.4813 24 14 23.695 15.6425 23.0662C15.8902 22.9715 16.1653 22.9789 16.4074 23.087C16.6496 23.1951 16.8389 23.3949 16.9338 23.6425ZM22 11C22 13.1756 21.3549 15.3023 20.1462 17.1113C18.9375 18.9202 17.2195 20.3301 15.2095 21.1627C13.1995 21.9952 10.9878 22.2131 8.85401 21.7886C6.72022 21.3642 4.76021 20.3166 3.22183 18.7782C1.68345 17.2398 0.635804 15.2798 0.211367 13.146C-0.213071 11.0122 0.00476617 8.80047 0.83733 6.79048C1.66989 4.78049 3.07979 3.06253 4.88873 1.85383C6.69767 0.645139 8.82441 0 11 0C13.9164 0.00330842 16.7123 1.1633 18.7745 3.22548C20.8367 5.28766 21.9967 8.08363 22 11ZM13 15.5C13 15.2033 12.912 14.9133 12.7472 14.6666C12.5824 14.42 12.3481 14.2277 12.074 14.1142C11.7999 14.0006 11.4983 13.9709 11.2074 14.0288C10.9164 14.0867 10.6491 14.2296 10.4393 14.4393C10.2296 14.6491 10.0867 14.9164 10.0288 15.2074C9.97095 15.4983 10.0007 15.7999 10.1142 16.074C10.2277 16.3481 10.42 16.5824 10.6666 16.7472C10.9133 16.912 11.2033 17 11.5 17C11.8978 17 12.2794 16.842 12.5607 16.5607C12.842 16.2794 13 15.8978 13 15.5ZM17 11.5C17 11.2033 16.912 10.9133 16.7472 10.6666C16.5824 10.42 16.3481 10.2277 16.074 10.1142C15.7999 10.0006 15.4983 9.97094 15.2074 10.0288C14.9164 10.0867 14.6491 10.2296 14.4393 10.4393C14.2296 10.6491 14.0867 10.9164 14.0288 11.2074C13.9709 11.4983 14.0007 11.7999 14.1142 12.074C14.2277 12.3481 14.42 12.5824 14.6666 12.7472C14.9133 12.912 15.2033 13 15.5 13C15.8978 13 16.2794 12.842 16.5607 12.5607C16.842 12.2794 17 11.8978 17 11.5Z" fill="url(#paint0_linear_282_652)"/>
</g>
<defs>
<filter id="filter0_i_282_652" x="0" y="0" width="22" height="33.3262" filterUnits="userSpaceOnUse" color-interpolation-filters="sRGB">
<feFlood flood-opacity="0" result="BackgroundImageFix"/>
<feBlend mode="normal" in="SourceGraphic" in2="BackgroundImageFix" result="shape"/>
<feColorMatrix in="SourceAlpha" type="matrix" values="0 0 0 0 0 0 0 0 0 0 0 0 0 0 0 0 0 0 127 0" result="hardAlpha"/>
<feOffset dy="2.32616"/>
<feGaussianBlur stdDeviation="1.16308"/>
<feComposite in2="hardAlpha" operator="arithmetic" k2="-1" k3="1"/>
<feColorMatrix type="matrix" values="0 0 0 0 0 0 0 0 0 0 0 0 0 0 0 0 0 0 0.25 0"/>
<feBlend mode="normal" in2="shape" result="effect1_innerShadow_282_652"/>
</filter>
<linearGradient id="paint0_linear_282_652" x1="11" y1="0" x2="11" y2="31" gradientUnits="userSpaceOnUse">
<stop stop-color="#D9D9D9"/>
<stop offset="1" stop-color="#737373"/>
</linearGradient>
</defs>
</svg>
