<svg width="29" height="30" viewBox="0 0 29 30" fill="none" xmlns="http://www.w3.org/2000/svg">
<g filter="url(#filter0_i_281_1316)">
<path fill-rule="evenodd" clip-rule="evenodd" d="M19.9482 3.88249C19.8671 4.4244 19.7451 4.92057 19.5776 5.41205C19.4119 5.89825 19.2037 6.37154 18.9471 6.87417C18.5101 7.72985 17.9046 8.30285 17.294 8.87878C17.0601 9.10048 16.8241 9.32276 16.6129 9.54855C16.1742 10.0166 15.9745 10.5186 15.9983 11.0148C16.0233 11.5391 16.294 12.0857 16.7917 12.6089C17.2985 13.1414 17.8337 13.4346 18.3507 13.4675C18.8365 13.4974 19.3296 13.2921 19.7893 12.8317C20.0078 12.6135 20.2229 12.3702 20.4374 12.1279C20.9947 11.4975 21.5492 10.8711 22.3778 10.4195C22.8641 10.1544 23.3221 9.93916 23.792 9.7679C24.2676 9.59489 24.7483 9.46879 25.2727 9.38434C26.1279 9.2471 26.7653 8.91866 27.2045 8.46824C27.5382 8.12632 27.7624 7.70757 27.885 7.24659C28.0104 6.77329 28.0285 6.2519 27.948 5.71644C27.7902 4.67014 27.2573 3.58396 26.4077 2.69895C25.5491 1.80456 24.5009 1.24857 23.4924 1.08611C22.9828 1.00459 22.4862 1.02335 22.0356 1.15062C21.594 1.27554 21.1934 1.5031 20.8631 1.84151C20.4136 2.3019 20.085 2.97577 19.9482 3.88249ZM17.4256 9.28053L18.5459 10.4383L19.2394 9.72098L18.143 8.58788C18.2772 8.45081 18.4071 8.30919 18.5323 8.16327L19.6395 9.30751L20.3568 8.56618L19.1412 7.30993C19.1895 7.22782 19.2354 7.14278 19.2803 7.05539C19.3285 6.96097 19.3756 6.86654 19.421 6.77212L20.7569 8.15271L21.4051 7.48353L19.8665 5.89297L19.7627 5.99971C19.8245 5.84605 19.8807 5.69356 19.9323 5.54166L19.9329 5.5399C20.0214 5.28009 20.0969 5.02262 20.1605 4.76222L20.5708 4.33819L20.3012 4.05961C20.3075 4.0209 20.3137 3.9816 20.32 3.94172C20.35 3.74114 20.3909 3.55288 20.4408 3.37693L20.9709 3.92471L21.6758 3.19629L20.8983 2.3928C20.9703 2.29252 21.0469 2.20044 21.1287 2.11716C21.1797 2.06437 21.2331 2.01511 21.2881 1.96877L22.0759 2.78282L22.7801 2.05499L22.241 1.49782C22.405 1.45911 22.5758 1.43624 22.7518 1.42862C22.8244 1.4251 22.8982 1.42451 22.9725 1.42686L23.1802 1.64151L23.3573 1.45853C23.3834 1.46205 23.409 1.46557 23.4351 1.47026C23.6263 1.50076 23.8193 1.54709 24.0122 1.60867L23.5803 2.05499L25.1189 3.64496L25.9514 2.78458C26.0156 2.84557 26.0791 2.90833 26.141 2.97343C26.2125 3.04791 26.2817 3.12416 26.3487 3.20157L25.519 4.05843L26.9968 5.58565L27.431 5.13757C27.4951 5.34616 27.5439 5.55947 27.5768 5.77567L27.5813 5.80852L27.3969 5.99912L27.6188 6.22844C27.6216 6.31817 27.6211 6.40732 27.6177 6.49588C27.6109 6.66655 27.591 6.83253 27.5581 6.99264L26.9968 6.4126L26.2925 7.14102L27.1143 7.99025C27.0604 8.06063 27.0025 8.12808 26.9389 8.19259C26.8669 8.2665 26.7901 8.33528 26.7091 8.39845L25.8924 7.55391L25.1876 8.28232L25.7619 8.87585C25.5922 8.92746 25.41 8.96969 25.2154 9.00077C25.1768 9.00723 25.1387 9.01309 25.1013 9.01954L24.7875 8.6958L24.3022 9.19783C24.0877 9.25707 23.8772 9.32452 23.6672 9.40076C23.4697 9.4729 23.2722 9.55325 23.0713 9.64298L23.283 9.42363L21.8052 7.89642L21.157 8.56618L22.4765 9.92977C22.3852 9.97669 22.2938 10.0254 22.2024 10.0752C22.1179 10.1216 22.0356 10.1691 21.9561 10.2189L20.7569 8.97966L20.0396 9.72098L21.1304 10.8482L21.0538 10.9186C20.938 11.0277 20.8273 11.1379 20.7195 11.2505L19.6395 10.1345L18.946 10.8517L20.0493 11.9919C19.9216 12.135 19.7933 12.2781 19.6605 12.4171L18.5459 11.2652L17.2923 12.5602C17.2116 12.489 17.134 12.4142 17.0596 12.3361C17.0016 12.2752 16.9458 12.2122 16.8922 12.1473L18.1458 10.8517L17.0142 9.68227C17.1487 9.54503 17.2871 9.41249 17.4256 9.28053ZM22.4754 3.19629L24.0145 4.78685L24.7188 4.05843L23.1802 2.46846L22.4754 3.19629ZM24.4146 5.20033L25.8924 6.72754L26.5967 5.99912L25.1189 4.47191L24.4146 5.20033ZM25.4923 7.14102L24.0145 5.6138L23.3096 6.34163L24.7875 7.86885L25.4923 7.14102ZM23.6144 5.20033L22.0759 3.60977L21.371 4.33819L22.9095 5.92816L23.6144 5.20033ZM20.2666 5.4795L21.8052 7.07005L22.5094 6.34163L20.9709 4.75166L20.2666 5.4795ZM22.2053 7.48353L23.6831 9.01074L24.3874 8.28232L22.9095 6.75511L22.2053 7.48353ZM14.4666 16.4175L1.34388 29.9789C1.31664 30.007 1.27181 30.007 1.244 29.9789L0.0204306 28.7144C-0.00681021 28.6857 -0.00681021 28.6399 0.0204306 28.6112L13.1431 15.0504L13.1324 15.0387C13.0484 14.2581 13.9411 13.8604 14.2731 12.8933C14.5307 12.1426 14.5511 11.6382 15.0029 10.7215C15.0534 10.057 15.3457 9.41307 15.8933 8.82835C16.1351 8.5697 16.3763 8.34215 16.6163 8.11518C17.1617 7.59965 17.7043 7.08765 18.0612 6.38855C18.2973 5.9264 18.4863 5.49768 18.6333 5.06778C18.7774 4.64316 18.8841 4.2074 18.9568 3.72472C19.1282 2.58517 19.5606 1.71834 20.1576 1.10664C20.6162 0.636271 21.1673 0.321327 21.7688 0.151245C22.3602 -0.0153178 22.9998 -0.0428828 23.645 0.0615122C24.8567 0.256226 26.1058 0.91368 27.1188 1.96995C28.1205 3.0139 28.751 4.30593 28.94 5.55867C29.0416 6.23431 29.0155 6.90349 28.852 7.52224C28.6852 8.15212 28.3747 8.72747 27.9099 9.20311C27.3248 9.80309 26.5025 10.2359 25.4253 10.4095C24.9583 10.4846 24.5366 10.5943 24.1257 10.7438C23.7097 10.8957 23.2949 11.091 22.8471 11.335C22.1706 11.7039 21.6752 12.2646 21.1763 12.8282C20.9567 13.0763 20.7365 13.3255 20.4868 13.5754C19.9193 14.1437 19.2945 14.4451 18.6515 14.4979C17.7667 14.963 17.2792 14.9841 16.5539 15.2498C15.6181 15.5929 15.2327 16.5155 14.4774 16.4287L14.4666 16.4175Z" fill="url(#paint0_linear_281_1316)"/>
</g>
<defs>
<filter id="filter0_i_281_1316" x="0" y="0" width="29" height="32.3262" filterUnits="userSpaceOnUse" color-interpolation-filters="sRGB">
<feFlood flood-opacity="0" result="BackgroundImageFix"/>
<feBlend mode="normal" in="SourceGraphic" in2="BackgroundImageFix" result="shape"/>
<feColorMatrix in="SourceAlpha" type="matrix" values="0 0 0 0 0 0 0 0 0 0 0 0 0 0 0 0 0 0 127 0" result="hardAlpha"/>
<feOffset dy="2.32616"/>
<feGaussianBlur stdDeviation="1.16308"/>
<feComposite in2="hardAlpha" operator="arithmetic" k2="-1" k3="1"/>
<feColorMatrix type="matrix" values="0 0 0 0 0 0 0 0 0 0 0 0 0 0 0 0 0 0 0.25 0"/>
<feBlend mode="normal" in2="shape" result="effect1_innerShadow_281_1316"/>
</filter>
<linearGradient id="paint0_linear_281_1316" x1="14.5" y1="0" x2="14.5" y2="30" gradientUnits="userSpaceOnUse">
<stop stop-color="#D9D9D9"/>
<stop offset="1" stop-color="#737373"/>
</linearGradient>
</defs>
</svg>
